# xmcd CD database file
#
# Track frame offsets:
#	150
#	17184
#	32619
#	46215
#	61838
#	78975
#	95678
#	115212
#	133589
#	149222
#	164745
#	179729
#	193726
#	210937
#	231539
#	258714
#
# Disc length: 3838 seconds
#
# Revision: 0
# Processed by: cddbd v1.5.2PL0 Copyright (c) Steve Scherf et al.
# Submitted via: CDex 1.79
#
DISCID=f30efc10
DTITLE=Kyle Park - Make Or Break Me
DYEAR=2011
DGENRE=Country
TTITLE0=Make Or Break Me
TTITLE1=Prove It To You
TTITLE2=Mistakes I'll Regret
TTITLE3=The Heart Of You
TTITLE4=I Love Her For A Million Reasons
TTITLE5=All Night
TTITLE6=Any Day Or Night
TTITLE7=I'm Missing You
TTITLE8=Leavin' Stephenville
TTITLE9=What You'll Never Know
TTITLE10=Just A Fake Smile
TTITLE11=Brokenhearted
TTITLE12=I Think You're In Love
TTITLE13=Whatever It Takes
TTITLE14=Overboard (It's Over)
TTITLE15=Data Track
EXTD=YEAR: 2011
EXTT0=
EXTT1=
EXTT2=
EXTT3=
EXTT4=
EXTT5=
EXTT6=
EXTT7=
EXTT8=
EXTT9=
EXTT10=
EXTT11=
EXTT12=
EXTT13=
EXTT14=
EXTT15=
PLAYORDER=
